<svg xmlns="http://www.w3.org/2000/svg" xml:space="preserve" fill-rule="evenodd" stroke-linejoin="round" stroke-miterlimit="2" clip-rule="evenodd" viewBox="0 0 100 100">
  <path fill-rule="nonzero" d="M50 44.998c-4.53-8.808-16.858-25.22-28.325-33.312C10.692 3.93 6.505 5.273 3.758 6.519.58 7.949 0 12.83 0 15.699c0 2.874 1.575 23.54 2.6 26.995 3.396 11.4 15.47 15.25 26.596 14.017a69.43 69.43 0 0 1 1.729-.234c-.575.092-1.15.167-1.73.234-16.3 2.416-30.778 8.354-11.79 29.491C38.291 107.827 46.028 81.565 50 68.252c3.97 13.313 8.542 38.63 32.22 17.95 17.78-17.95 4.884-27.075-11.416-29.491a34.45 34.45 0 0 1-1.729-.234c.583.071 1.163.15 1.73.234 11.124 1.237 23.2-2.617 26.595-14.017 1.025-3.45 2.6-24.125 2.6-26.992 0-2.875-.58-7.754-3.758-9.191-2.746-1.242-6.934-2.584-17.917 5.166C66.858 19.781 54.53 36.194 50 44.998Z"/>
</svg>