<?xml version="1.0" standalone="no"?>
<!DOCTYPE svg PUBLIC "-//W3C//DTD SVG 20010904//EN"
 "http://www.w3.org/TR/2001/REC-SVG-20010904/DTD/svg10.dtd">
<svg version="1.0" xmlns="http://www.w3.org/2000/svg"
 width="1144.000000pt" height="1144.000000pt" viewBox="0 0 1144.000000 1144.000000"
 preserveAspectRatio="xMidYMid meet">
<metadata>
Created by potrace 1.14, written by Peter Selinger 2001-2017
</metadata>
<g transform="translate(0.000000,1144.000000) scale(0.100000,-0.100000)"
fill="#000000" stroke="none">
<path d="M3229 9915 c-2 -2 -31 -6 -64 -9 -111 -12 -184 -28 -305 -69 -36 -11
-67 -22 -70 -22 -3 -1 -27 -11 -53 -23 -27 -12 -50 -22 -52 -22 -2 0 -26 -13
-54 -29 -27 -16 -52 -27 -55 -24 -3 4 -6 2 -6 -3 0 -5 -17 -18 -37 -29 -21
-11 -42 -25 -46 -32 -4 -7 -13 -13 -19 -13 -27 0 -288 -234 -288 -259 0 -6 -4
-11 -9 -11 -5 0 -30 -28 -55 -62 -25 -35 -49 -67 -53 -73 -23 -29 -63 -96 -63
-105 0 -5 -5 -10 -12 -10 -6 0 -8 -3 -5 -6 3 -4 -2 -18 -13 -32 -11 -13 -17
-28 -14 -33 3 -5 0 -9 -5 -9 -6 0 -11 -9 -11 -20 0 -11 -4 -20 -10 -20 -5 0
-10 -8 -10 -18 0 -10 -4 -22 -8 -27 -5 -6 -17 -32 -26 -60 -10 -27 -22 -59
-26 -70 -8 -18 -28 -87 -35 -125 -2 -8 -4 -15 -5 -15 -1 0 -3 -9 -5 -20 -1
-11 -6 -33 -9 -50 -8 -33 -10 -46 -21 -150 -12 -106 -5 -381 11 -406 2 -4 6
-24 10 -45 3 -22 12 -64 20 -94 8 -30 17 -66 20 -79 3 -13 11 -35 18 -50 8
-14 16 -37 17 -51 2 -14 6 -27 9 -30 6 -5 10 -15 75 -175 54 -133 65 -158 75
-177 6 -10 10 -22 10 -28 0 -6 9 -29 20 -53 10 -23 29 -67 41 -97 11 -30 26
-66 32 -80 6 -14 11 -27 12 -30 1 -3 6 -16 12 -30 6 -14 30 -72 53 -130 23
-58 50 -124 61 -147 10 -23 19 -45 19 -48 0 -4 7 -21 15 -38 24 -53 126 -301
130 -318 2 -9 8 -25 13 -35 10 -19 26 -57 45 -104 5 -14 16 -37 23 -51 7 -14
11 -29 7 -33 -3 -3 -1 -6 5 -6 7 0 11 -3 10 -7 -3 -10 62 -174 74 -188 4 -5 8
-15 8 -22 0 -7 11 -36 24 -65 25 -55 140 -339 142 -348 0 -3 7 -21 16 -40 8
-19 25 -60 38 -90 12 -30 31 -74 41 -97 11 -24 19 -47 19 -53 0 -6 4 -18 9
-28 13 -24 34 -75 71 -167 18 -44 41 -100 52 -125 12 -25 21 -51 21 -57 0 -7
4 -13 9 -13 4 0 7 -3 6 -7 -1 -5 11 -42 28 -83 18 -41 62 -149 99 -240 36 -91
73 -179 81 -197 8 -17 14 -35 14 -40 0 -4 7 -21 16 -38 9 -16 25 -55 36 -85
11 -30 25 -60 29 -66 5 -6 6 -14 2 -17 -3 -4 -1 -7 5 -7 7 0 11 -3 10 -7 -1
-5 4 -24 11 -43 8 -19 15 -37 16 -40 1 -3 7 -18 13 -33 7 -16 22 -52 33 -80
12 -29 30 -71 40 -94 11 -24 19 -45 19 -47 0 -2 8 -21 17 -42 9 -22 18 -43 19
-49 1 -5 21 -55 44 -110 109 -260 163 -393 173 -422 6 -18 13 -33 17 -33 3 0
6 -8 7 -19 1 -10 11 -40 23 -67 37 -83 47 -105 90 -214 55 -138 57 -144 59
-153 0 -4 12 -27 26 -52 13 -25 25 -47 25 -50 2 -12 49 -105 73 -142 15 -24
27 -47 27 -52 0 -5 4 -11 8 -13 5 -1 23 -25 42 -53 19 -27 41 -59 50 -70 21
-27 220 -226 250 -250 46 -36 181 -124 211 -137 16 -7 29 -16 29 -20 0 -5 9
-8 19 -8 11 0 22 -4 25 -9 3 -5 43 -23 88 -41 46 -18 89 -38 96 -43 6 -5 12
-7 12 -3 0 3 12 1 28 -5 26 -10 37 -13 82 -23 11 -3 23 -7 28 -9 6 -5 52 -14
107 -22 11 -2 21 -4 23 -5 1 -2 11 -4 22 -5 11 -1 21 -3 23 -4 7 -6 156 -14
247 -14 150 -1 240 11 369 45 42 11 82 20 89 21 6 0 12 4 12 9 0 4 3 7 8 6 11
-3 79 21 149 54 34 15 66 28 72 28 6 0 11 3 11 8 0 4 14 13 30 20 30 14 181
109 190 121 3 3 23 19 45 36 42 31 199 185 249 244 146 172 294 480 330 686 3
17 8 43 12 58 13 63 15 88 19 242 2 88 -1 183 -5 210 -4 28 -11 70 -14 95 -3
25 -10 60 -15 78 -5 18 -10 33 -10 35 2 19 -48 174 -91 282 -30 77 -39 97 -73
175 -8 19 -35 85 -60 145 -43 107 -56 138 -83 200 -7 17 -33 82 -59 145 -26
63 -52 126 -58 140 -6 14 -11 27 -12 30 -1 3 -7 17 -13 32 -6 15 -27 67 -47
115 -20 48 -45 107 -56 130 -10 24 -19 45 -19 47 0 2 -8 21 -17 42 -9 22 -17
44 -19 49 -1 6 -11 30 -22 55 -38 83 -99 239 -100 254 0 5 -4 12 -9 15 -4 3
-19 33 -32 66 -41 103 -121 299 -131 320 -5 11 -30 72 -56 135 -25 63 -53 131
-61 150 -9 19 -21 49 -28 65 -8 17 -23 55 -35 85 -12 30 -28 69 -35 85 -7 17
-39 93 -70 170 -31 77 -68 164 -80 193 -13 28 -21 52 -18 52 3 0 1 6 -5 13 -5
6 -29 59 -52 117 -23 58 -48 121 -57 140 -8 19 -19 44 -24 55 -4 11 -25 61
-45 110 -20 50 -43 106 -51 125 -8 19 -20 46 -25 60 -6 14 -16 36 -23 50 -7
14 -13 27 -13 30 -1 9 -145 365 -201 495 -5 11 -16 36 -24 55 -9 19 -23 55
-32 80 -9 25 -25 63 -36 85 -10 22 -44 103 -75 180 -31 77 -62 154 -69 170 -6
17 -22 55 -35 85 -13 30 -31 74 -41 97 -11 24 -19 45 -19 48 0 3 -10 27 -21
53 -34 74 -46 104 -65 152 -21 53 -111 227 -124 240 -3 3 -25 34 -49 69 -24
36 -54 76 -65 90 -39 46 -171 176 -214 211 -24 19 -49 40 -55 45 -87 77 -408
234 -530 260 -10 2 -27 7 -37 10 -17 5 -26 8 -77 19 -10 2 -38 7 -63 11 -25 5
-54 10 -65 12 -28 5 -352 12 -356 8z"/>
<path d="M7489 9916 c-2 -2 -26 -6 -54 -8 -27 -2 -55 -7 -61 -10 -5 -4 -19 -5
-30 -4 -10 2 -26 0 -34 -4 -8 -5 -33 -11 -55 -15 -45 -7 -53 -9 -75 -18 -8 -3
-46 -15 -85 -28 -93 -29 -294 -128 -336 -165 -9 -8 -19 -11 -22 -7 -4 3 -7 2
-7 -4 0 -5 -21 -24 -47 -41 -44 -29 -66 -47 -143 -116 -83 -75 -221 -245 -286
-352 -43 -71 -124 -241 -131 -275 -3 -16 -9 -29 -13 -29 -3 0 -7 -6 -8 -12 -2
-23 -7 -43 -15 -55 -5 -7 -5 -13 -1 -13 3 0 1 -7 -6 -15 -7 -8 -10 -15 -7 -15
3 0 1 -15 -4 -32 -5 -18 -12 -46 -15 -63 -9 -46 -12 -60 -15 -60 -1 0 -2 -11
-4 -25 -1 -14 -5 -61 -10 -105 -8 -84 -9 -235 -1 -282 2 -15 7 -53 11 -84 7
-64 8 -71 28 -154 31 -125 74 -239 166 -447 12 -26 21 -50 21 -53 0 -3 9 -24
19 -48 17 -38 27 -64 32 -85 1 -4 13 -28 26 -53 13 -26 23 -53 23 -61 0 -8 4
-18 8 -24 5 -5 17 -29 27 -54 9 -25 22 -56 28 -70 6 -14 11 -27 12 -30 4 -11
19 -47 36 -86 10 -22 28 -65 39 -95 12 -30 27 -65 33 -79 5 -14 11 -29 13 -35
1 -5 13 -32 25 -60 13 -27 24 -52 24 -55 1 -3 5 -14 10 -25 39 -97 59 -144 70
-170 47 -104 95 -226 95 -239 0 -9 5 -16 10 -16 6 0 10 -7 10 -15 0 -8 9 -34
19 -57 43 -95 61 -138 61 -145 0 -7 34 -83 51 -115 5 -10 9 -22 9 -28 0 -5 14
-40 31 -77 17 -38 32 -72 34 -78 1 -5 7 -21 12 -35 6 -14 23 -54 37 -90 15
-36 34 -79 42 -97 8 -17 14 -34 14 -37 0 -3 9 -25 19 -49 11 -23 31 -71 46
-107 30 -74 35 -86 65 -155 12 -27 23 -54 25 -60 3 -13 23 -62 41 -102 9 -17
17 -37 18 -45 1 -7 17 -44 34 -82 18 -38 32 -72 32 -76 0 -7 35 -92 60 -145 5
-11 26 -60 46 -110 20 -49 42 -103 49 -120 7 -16 22 -53 34 -82 11 -28 26 -64
33 -80 6 -15 12 -30 13 -33 1 -3 7 -17 13 -32 6 -15 50 -120 97 -235 47 -114
96 -228 107 -253 11 -25 21 -49 23 -55 2 -9 8 -25 37 -92 6 -16 12 -31 13 -35
2 -5 4 -11 5 -15 1 -5 2 -11 1 -15 0 -5 3 -8 9 -8 5 0 10 -6 10 -13 0 -10 54
-145 110 -274 17 -39 38 -91 63 -153 5 -14 13 -32 17 -41 4 -8 20 -47 35 -85
15 -38 36 -87 45 -109 10 -22 32 -76 50 -120 28 -71 92 -201 113 -229 4 -6 28
-42 53 -81 67 -102 106 -149 212 -253 220 -216 494 -358 822 -426 133 -28 373
-39 495 -23 124 16 153 21 175 30 8 3 42 13 75 22 74 20 75 20 100 30 11 5 42
16 68 27 65 24 208 102 279 150 108 74 318 264 318 288 0 5 4 10 8 10 5 0 21
18 38 41 16 22 34 46 40 52 23 26 94 137 94 146 0 6 5 11 10 11 6 0 9 3 8 8
-1 4 17 44 39 89 37 75 64 140 61 146 -1 1 5 13 12 27 8 14 15 30 16 35 0 6 2
13 4 18 1 4 3 10 4 15 2 4 8 27 15 52 14 49 18 66 26 120 3 20 8 47 10 60 15
74 26 310 15 310 -3 0 -5 22 -4 49 1 46 -8 126 -21 181 -3 14 -8 39 -11 55
-13 76 -66 247 -90 294 -8 14 -14 29 -14 32 0 4 -8 24 -17 45 -9 22 -17 41
-18 44 0 3 -6 14 -12 25 -6 11 -11 22 -11 25 0 3 -5 16 -11 30 -5 14 -29 70
-51 125 -38 92 -75 181 -102 245 -18 43 -25 60 -99 240 -39 96 -77 189 -84
205 -46 102 -113 275 -107 275 4 0 2 4 -4 8 -6 4 -27 50 -48 102 -21 52 -44
110 -52 128 -74 170 -103 242 -97 242 3 0 1 6 -5 13 -6 6 -20 37 -32 67 -12
30 -28 69 -35 85 -7 17 -50 120 -96 230 -45 110 -89 216 -97 235 -9 19 -16 40
-18 45 -1 6 -11 31 -22 55 -11 25 -21 48 -22 52 -1 8 -42 104 -60 143 -5 11
-34 81 -64 155 -64 160 -84 208 -96 235 -5 11 -20 47 -33 80 -32 77 -75 181
-92 220 -7 17 -29 73 -50 125 -21 52 -42 99 -47 105 -4 5 -8 16 -8 25 0 8 -7
29 -16 45 -18 35 -121 285 -137 333 -6 17 -14 32 -19 32 -4 0 -8 6 -8 14 0 8
-41 112 -90 232 -50 121 -105 253 -122 294 -17 41 -38 93 -48 115 -9 22 -24
58 -31 80 -8 22 -16 42 -19 45 -3 3 -30 66 -59 140 -58 146 -169 370 -182 370
-5 0 -9 5 -9 12 0 12 -96 144 -142 192 -78 85 -154 156 -165 156 -7 0 -13 4
-13 9 0 22 -292 207 -340 216 -3 0 -14 6 -25 12 -27 14 -166 65 -185 67 -9 1
-20 4 -25 8 -10 5 -131 35 -175 42 -14 3 -25 5 -25 6 0 8 -398 23 -406 16z"/>
<path d="M1478 4564 c-4 -3 -48 -7 -100 -10 -286 -12 -599 -137 -838 -332 -72
-59 -176 -167 -231 -239 -24 -32 -47 -59 -51 -61 -5 -2 -8 -8 -8 -13 0 -5 -17
-35 -37 -66 -21 -32 -38 -60 -39 -63 0 -3 -15 -36 -33 -75 -18 -38 -36 -79
-41 -90 -4 -11 -12 -32 -19 -48 -21 -53 -54 -193 -68 -292 -10 -64 -10 -324 0
-390 21 -150 57 -276 120 -417 10 -21 17 -40 17 -43 0 -17 123 -205 184 -280
57 -71 226 -235 242 -235 3 0 12 -6 19 -12 78 -70 272 -173 415 -222 44 -14
90 -27 120 -32 8 -2 47 -10 85 -19 55 -12 228 -28 290 -26 52 1 179 13 185 16
4 3 32 7 61 11 30 3 58 9 64 12 5 3 16 7 25 8 8 1 38 9 65 18 28 8 69 21 93
28 23 7 42 16 42 20 0 4 7 8 14 8 25 0 224 107 266 143 11 9 24 17 29 17 5 0
11 3 13 8 2 4 26 25 53 46 57 45 178 166 215 215 14 18 35 45 46 59 37 47 106
164 141 242 53 115 63 143 84 220 7 25 13 47 14 50 8 25 15 60 19 85 2 17 5
30 6 30 1 0 4 29 7 65 2 36 9 67 14 68 5 2 7 8 4 13 -3 4 -8 66 -10 136 -5
160 -9 194 -44 343 -24 101 -115 313 -172 398 -16 24 -29 47 -29 52 0 4 -3 10
-7 12 -5 2 -28 30 -53 63 -57 76 -188 207 -265 265 -33 25 -61 48 -63 53 -2 4
-10 7 -18 7 -8 0 -14 4 -14 9 0 5 -8 11 -17 15 -10 3 -34 15 -53 26 -47 28
-94 54 -100 55 -3 1 -25 10 -50 22 -53 24 -168 65 -190 67 -9 1 -21 5 -27 9
-6 4 -24 9 -40 11 -15 3 -64 10 -108 18 -44 7 -109 13 -145 13 -36 0 -68 3
-71 8 -3 4 -8 5 -11 1z"/>
</g>
</svg>
