<svg xmlns="http://www.w3.org/2000/svg" viewBox="0 0 107 107">
  <g fill="#EEE">
    <path d="M55.337 86.934c3.563 0 6.966-.5 10.21-1.502 3.242-1 6.228-2.396 8.954-4.186 2.727-1.79 5.087-3.866 7.079-6.23 1.992-2.365 3.517-4.92 4.575-7.666a4.55 4.55 0 0 0 .335-1.186 7.43 7.43 0 0 0 .068-.84c0-.628-.207-1.135-.62-1.521-.414-.387-.87-.58-1.368-.58-.446 0-1 .12-1.663.36-1.243.43-2.82.825-4.734 1.182a31.999 31.999 0 0 1-5.891.537c-4.45 0-8.47-.664-12.058-1.991-3.589-1.328-6.656-3.25-9.201-5.767-2.546-2.518-4.495-5.555-5.85-9.112-1.354-3.558-2.03-7.556-2.03-11.995 0-1.255.087-2.616.261-4.081a39.29 39.29 0 0 1 .737-4.242c.316-1.362.676-2.495 1.079-3.397.18-.4.294-.744.343-1.031a4.36 4.36 0 0 0 .073-.7c0-.479-.173-.93-.52-1.352-.345-.423-.847-.634-1.505-.634-.212 0-.502.027-.87.08a5.416 5.416 0 0 0-1.14.305c-4.113 1.648-7.713 4.101-10.8 7.36-3.086 3.26-5.492 7.025-7.215 11.298A35.366 35.366 0 0 0 21 53.398c0 4.892.87 9.376 2.609 13.455 1.74 4.078 4.162 7.617 7.27 10.619 3.106 3 6.742 5.328 10.906 6.982 4.164 1.653 8.681 2.48 13.552 2.48z"/>
    <path d="M53.5 0C83.047 0 107 23.953 107 53.5S83.047 107 53.5 107 0 83.047 0 53.5 23.953 0 53.5 0zm0 9C28.923 9 9 28.923 9 53.5S28.923 98 53.5 98 98 78.077 98 53.5 78.077 9 53.5 9z"/>
  </g>
</svg>
