<svg xmlns="http://www.w3.org/2000/svg" viewBox="0 0 107 107">
  <g fill="#222">
    <path d="M53.5 0C83.047 0 107 23.953 107 53.5S83.047 107 53.5 107 0 83.047 0 53.5 23.953 0 53.5 0zm0 9C28.923 9 9 28.923 9 53.5S28.923 98 53.5 98 98 78.077 98 53.5 78.077 9 53.5 9z"/>
    <path d="M53.645 28.066c1.117 0 2.068-.393 2.855-1.18.786-.786 1.18-1.738 1.18-2.855a3.887 3.887 0 0 0-1.18-2.851c-.787-.787-1.738-1.18-2.855-1.18-1.114 0-2.065.393-2.851 1.18-.787.787-1.18 1.737-1.18 2.851 0 1.117.393 2.069 1.18 2.855.786.787 1.737 1.18 2.851 1.18zm-20.953 8.657c1.117 0 2.068-.393 2.855-1.18.786-.786 1.18-1.737 1.18-2.851a3.89 3.89 0 0 0-1.18-2.853c-.787-.788-1.738-1.182-2.855-1.182-1.114 0-2.065.394-2.851 1.182-.787.788-1.18 1.739-1.18 2.853s.393 2.065 1.18 2.851c.786.787 1.737 1.18 2.851 1.18zm41.906 0c1.116 0 2.068-.393 2.854-1.18.787-.786 1.18-1.737 1.18-2.851a3.89 3.89 0 0 0-1.18-2.853c-.786-.788-1.738-1.182-2.854-1.182-1.093 0-2.039.394-2.836 1.182-.797.788-1.195 1.739-1.195 2.853s.398 2.065 1.195 2.851c.797.787 1.743 1.18 2.836 1.18zM53.645 70.821c2.352 0 4.562-.45 6.63-1.353a17.638 17.638 0 0 0 5.473-3.723 17.645 17.645 0 0 0 3.723-5.47c.902-2.068 1.353-4.278 1.353-6.63 0-2.352-.45-4.562-1.353-6.63a17.645 17.645 0 0 0-3.723-5.47 17.638 17.638 0 0 0-5.472-3.723c-2.069-.902-4.28-1.353-6.63-1.353-2.353 0-4.563.451-6.63 1.353a17.648 17.648 0 0 0-5.471 3.723 17.639 17.639 0 0 0-3.723 5.47c-.902 2.068-1.353 4.278-1.353 6.63 0 2.354.451 4.565 1.353 6.633a17.656 17.656 0 0 0 3.721 5.47 17.593 17.593 0 0 0 5.471 3.722c2.069.9 4.279 1.351 6.631 1.351zm-29.61-13.144c1.114 0 2.065-.394 2.851-1.18.787-.787 1.18-1.738 1.18-2.852 0-1.114-.393-2.065-1.18-2.853-.786-.788-1.737-1.182-2.851-1.182a3.888 3.888 0 0 0-2.853 1.182A3.888 3.888 0 0 0 20 53.645c0 1.114.394 2.065 1.182 2.852.787.786 1.738 1.18 2.853 1.18zm59.224 0c1.114 0 2.065-.394 2.851-1.18.787-.787 1.18-1.738 1.18-2.852 0-1.114-.393-2.065-1.18-2.853-.786-.788-1.737-1.182-2.851-1.182-1.093 0-2.04.394-2.837 1.182-.799.788-1.198 1.739-1.198 2.853s.4 2.065 1.198 2.852c.798.786 1.744 1.18 2.837 1.18zm-8.661 20.952c1.116 0 2.068-.393 2.854-1.18.787-.786 1.18-1.737 1.18-2.85 0-1.115-.393-2.066-1.18-2.852-.786-.787-1.738-1.18-2.854-1.18-1.093 0-2.039.393-2.836 1.18-.797.786-1.195 1.737-1.195 2.851 0 1.114.398 2.065 1.195 2.851.797.787 1.743 1.18 2.836 1.18zm-41.906 0c1.117 0 2.068-.393 2.855-1.18a3.885 3.885 0 0 0 1.18-2.85c0-1.115-.394-2.066-1.18-2.852-.787-.787-1.738-1.18-2.855-1.18-1.114 0-2.065.393-2.851 1.18-.787.786-1.18 1.737-1.18 2.851 0 1.114.393 2.065 1.18 2.851.786.787 1.737 1.18 2.851 1.18zm20.953 8.661c1.117 0 2.068-.393 2.855-1.18.786-.786 1.18-1.738 1.18-2.855a3.887 3.887 0 0 0-1.18-2.851c-.787-.787-1.738-1.18-2.855-1.18-1.114 0-2.065.393-2.851 1.18-.787.787-1.18 1.737-1.18 2.851 0 1.117.393 2.069 1.18 2.855.786.787 1.737 1.18 2.851 1.18z"/>
  </g>
</svg>
