<svg xmlns="http://www.w3.org/2000/svg" width="143" height="105" viewBox="0 0 143 105">
  <g fill="none" fill-rule="evenodd">
    <circle cx="18.5" cy="85.5" r="18.5" fill="#7ECEF4"/>
    <path fill="#1D2088" d="M106.863439,104.457 C121.913439,104.457 130.642439,89.104 125.224439,76.461 L99.0364391,12.343 C94.8214391,2.709 86.0924391,0 80.0714391,0 C67.1284391,0 55.9894391,13.547 61.7084391,27.996 L88.1984391,92.114 C92.1134391,101.445 100.842439,104.457 106.863439,104.457 Z M53.5824391,104.457 C68.6324391,104.457 77.6634391,89.104 72.2454391,76.461 L45.7544391,12.343 C41.5414391,2.709 32.8104391,0 26.7914391,0 C13.8454391,0 3.01043908,13.547 8.42843908,27.996 L34.9174391,92.114 C38.8324391,101.445 47.5604391,104.457 53.5824391,104.457 Z" transform="rotate(-180 74.524 52.228)"/>
  </g>
</svg>
