<svg xmlns="http://www.w3.org/2000/svg" viewBox="0 0 100 100">
  <path fill="#FFF" d="M97.615 22.138C96.15 11.396 86.672 2.929 75.437 1.288 73.538 1.008 66.355 0 49.717 0h-.126C32.95 0 29.374 1.008 27.48 1.288 16.554 2.883 6.577 10.492 4.156 21.363c-1.158 5.354-1.284 11.291-1.07 16.733.309 7.808.368 15.604 1.087 23.38a107.537 107.537 0 0 0 2.592 15.332c2.3 9.321 11.612 17.076 20.74 20.238a56.28 56.28 0 0 0 30.34 1.583 44.424 44.424 0 0 0 3.287-.887c2.446-.767 5.31-1.625 7.418-3.138a.237.237 0 0 0 .096-.179v-7.537a.222.222 0 0 0-.276-.213 85.094 85.094 0 0 1-19.69 2.271c-11.416 0-14.48-5.35-15.363-7.575a23.234 23.234 0 0 1-1.334-5.97.22.22 0 0 1 .276-.226 83.514 83.514 0 0 0 19.369 2.275c1.572 0 3.136 0 4.704-.042 6.565-.183 13.48-.516 19.937-1.758.159-.033.322-.062.46-.1 10.181-1.933 19.874-8 20.86-23.35.034-.604.126-6.333.126-6.958.009-2.134.699-15.125-.1-23.104zM81.943 60.45H71.234V34.542c0-5.454-2.3-8.234-6.983-8.234-5.143 0-7.719 3.292-7.719 9.792v14.18H45.887V36.095c0-6.5-2.58-9.792-7.728-9.792-4.65 0-6.974 2.784-6.983 8.238V60.45H20.484V33.758c0-5.458 1.41-9.791 4.228-13 2.91-3.208 6.724-4.85 11.457-4.85 5.482 0 9.626 2.084 12.385 6.242l2.668 4.417 2.668-4.417c2.76-4.162 6.9-6.242 12.377-6.242 4.725 0 8.542 1.646 11.457 4.85 2.822 3.209 4.231 7.542 4.231 13l-.012 26.692z"/>
</svg>
