<svg role="img" xmlns="http://www.w3.org/2000/svg" width="752" height="105" viewBox="0 0 752 105">
	<title>Matthew Allen</title>
	<g fill="none" fill-rule="evenodd">
		<circle class="icon-1" cx="18.5" cy="85.5" r="18.5" fill="#7ECEF4"/>
		<path class="icon-2" fill="#1D2088" d="M106.863439,104.457 C121.913439,104.457 130.642439,89.104 125.224439,76.461 L99.0364391,12.343 C94.8214391,2.709 86.0924391,0 80.0714391,0 C67.1284391,0 55.9894391,13.547 61.7084391,27.996 L88.1984391,92.114 C92.1134391,101.445 100.842439,104.457 106.863439,104.457 Z M53.5824391,104.457 C68.6324391,104.457 77.6634391,89.104 72.2454391,76.461 L45.7544391,12.343 C41.5414391,2.709 32.8104391,0 26.7914391,0 C13.8454391,0 3.01043908,13.547 8.42843908,27.996 L34.9174391,92.114 C38.8324391,101.445 47.5604391,104.457 53.5824391,104.457 Z" transform="rotate(-180 74.524 52.228)"/>
		<path class="text" fill="#FFF" fill-rule="nonzero" d="M187.76,87 L189.47,52.62 L189.92,52.62 L196.4,78 L203.78,78 L210.26,52.62 L210.71,52.62 L212.42,87 L224.21,87 L220.16,24 L208.91,24 L205.04,38.49 L200.27,58.2 L199.91,58.2 L195.14,38.49 L191.27,24 L180.02,24 L175.97,87 L187.76,87 Z M244.07,87 L245.96,77.01 L260.18,77.01 L262.07,87 L274.13,87 L262.61,24 L243.98,24 L231.83,87 L244.07,87 Z M258.65,67.38 L247.4,67.38 L249.38,56.67 L252.89,35.7 L253.07,35.7 L256.58,56.67 L258.65,67.38 Z M300.02,87 L300.02,34.8 L313.61,34.8 L313.61,24 L274.19,24 L274.19,34.8 L287.78,34.8 L287.78,87 L300.02,87 Z M344.99,87 L344.99,34.8 L358.58,34.8 L358.58,24 L319.16,24 L319.16,34.8 L332.75,34.8 L332.75,87 L344.99,87 Z M379.88,87 L379.88,60.9 L394.28,60.9 L394.28,87 L406.61,87 L406.61,24 L394.28,24 L394.28,49.38 L379.88,49.38 L379.88,24 L367.55,24 L367.55,87 L379.88,87 Z M451.67,87 L451.67,76.56 L431.33,76.56 L431.33,60.27 L449.15,60.27 L449.15,49.83 L431.33,49.83 L431.33,34.8 L451.31,34.8 L451.31,24 L419,24 L419,87 L451.67,87 Z M480.26,87 L486.74,49.83 L487.1,49.83 L493.4,87 L506.36,87 L515.09,24 L503.03,24 L500.51,42.54 L498.71,63.42 L498.26,63.42 L494.84,42.63 L492.14,24 L481.97,24 L479.18,42.63 L475.85,63.42 L475.4,63.42 L473.51,42.54 L470.99,24 L458.93,24 L467.66,87 L480.26,87 Z M551.03,87 L552.92,77.01 L567.14,77.01 L569.03,87 L581.09,87 L569.57,24 L550.94,24 L538.79,87 L551.03,87 Z M565.61,67.38 L554.36,67.38 L556.34,56.67 L559.85,35.7 L560.03,35.7 L563.54,56.67 L565.61,67.38 Z M621.11,87 L621.11,76.56 L602.39,76.56 L602.39,24 L590.06,24 L590.06,87 L621.11,87 Z M662.03,87 L662.03,76.56 L643.31,76.56 L643.31,24 L630.98,24 L630.98,87 L662.03,87 Z M704.57,87 L704.57,76.56 L684.23,76.56 L684.23,60.27 L702.05,60.27 L702.05,49.83 L684.23,49.83 L684.23,34.8 L704.21,34.8 L704.21,24 L671.9,24 L671.9,87 L704.57,87 Z M726.59,87 L726.59,62.97 L726.05,52.35 L726.5,52.17 L743.33,87 L751.7,87 L751.7,24 L740.36,24 L740.36,48.93 L741.35,60 L740.9,60.18 L724.34,24 L715.25,24 L715.25,87 L726.59,87 Z"/>
	</g>
</svg>