<svg xmlns="http://www.w3.org/2000/svg" version="1.1" xmlns:xlink="http://www.w3.org/1999/xlink" viewBox="0 0 5906 5906" xml:space="preserve" xmlns:serif="http://www.serif.com/" width="5906" height="5906"><g id="Artboard1" transform="matrix(1,0,0,1,1712.598425,1198.818898)">
        <rect x="-1712.598" y="-1198.819" width="5905.512" height="5905.512" style="fill:none;"></rect>
        <g transform="matrix(1,0,0,1,-1712.598425,-1198.818898)">
            <rect x="0" y="0" width="5905.512" height="5905.512" style="fill:rgb(15,15,13);"></rect>
        </g>
        <g transform="matrix(2.866096,0,0,2.866096,-5770.970024,-6273.932729)">
            <path d="M1601.429,3198.177L1601.429,3186.177L1625.429,3177.777C1652.629,3168.977 1666.229,3146.177 1666.229,3109.377L1666.229,2494.977C1666.229,2478.977 1664.429,2466.177 1660.829,2456.577C1657.229,2446.977 1647.829,2438.977 1632.629,2432.577L1601.429,2418.177L1601.429,2406.177L1833.029,2406.177L2055.029,2986.977L2263.829,2406.177L2500.229,2406.177L2500.229,2418.177L2481.029,2425.377C2465.829,2430.977 2455.429,2438.777 2449.829,2448.777C2444.229,2458.777 2441.429,2471.777 2441.429,2487.777L2441.429,3115.377C2441.429,3131.377 2443.429,3143.777 2447.429,3152.577C2451.429,3161.377 2461.029,3168.977 2476.229,3175.377L2500.229,3186.177L2500.229,3198.177L2201.429,3198.177L2201.429,3186.177L2226.629,3175.377C2241.829,3168.977 2251.429,3161.377 2255.429,3152.577C2259.429,3143.777 2261.429,3131.377 2261.429,3115.377L2261.429,2845.377L2263.829,2502.177L2013.029,3198.177L1953.029,3198.177L1691.429,2510.577L1695.029,2809.377L1695.029,3111.777C1695.029,3129.377 1697.629,3143.577 1702.829,3154.377C1708.029,3165.177 1718.229,3172.977 1733.429,3177.777L1759.829,3186.177L1759.829,3198.177L1601.429,3198.177ZM2536.229,3198.177L2536.229,3186.177L2566.229,3175.377C2582.229,3168.977 2594.629,3161.177 2603.429,3151.977C2612.229,3142.777 2619.429,3129.777 2625.029,3112.977L2872.229,2403.777L2974.229,2403.777L3217.829,3117.777C3224.229,3135.377 3231.429,3148.777 3239.429,3157.977C3247.429,3167.177 3259.829,3174.977 3276.629,3181.377L3291.029,3186.177L3291.029,3198.177L2986.229,3198.177L2986.229,3186.177L3004.229,3180.177C3021.029,3173.777 3031.229,3164.777 3034.829,3153.177C3038.429,3141.577 3037.829,3127.777 3033.029,3111.777L2976.629,2938.977L2710.229,2938.977L2652.629,3108.177C2647.029,3125.777 2645.229,3139.777 2647.229,3150.177C2649.229,3160.577 2658.629,3168.977 2675.429,3175.377L2701.829,3186.177L2701.829,3198.177L2536.229,3198.177ZM2718.629,2914.977L2969.429,2914.977L2848.229,2541.777L2718.629,2914.977Z" style="fill:rgb(212,176,0);"></path>
        </g>
    </g></svg>